<svg height="450.00000000000006" version="1.1" width="654.6588153792865" xmlns="http://www.w3.org/2000/svg" style="overflow: hidden; position: relative; left: -0.421875px;" viewBox="0.6429684793903706 0.6429684793903138 654.6588153792866 450.0000000000001" preserveAspectRatio="xMinYMin"><rect x="-2015.01" y="-1384.77" width="5040" height="3464.4" r="0" rx="0" ry="0" fill="#ffffff" stroke="none" transform="matrix(0.6495,0,0,0.6495,0,0)" stroke-width="1.5397333333333336" style="-webkit-tap-highlight-color: rgba(0, 0, 0, 0); fill-opacity: 0;" fill-opacity="0"></rect>

<path fill="#88a4bc" stroke="#ffffff" class="bahoruco" d="M230.3,381.2L243.20000000000002,394.3L260.1,400.2L268.6,401.8L275.90000000000003,406.6L275.8,411.70000000000005L270,413.90000000000003L264.7,407.00000000000006L261.09999999999997,414.50000000000006L256.79999999999995,421.50000000000006L249.79999999999995,426.70000000000005L241.49999999999994,429.70000000000005L237.09999999999994,433.30000000000007L234.09999999999994,438.00000000000006L225.09999999999994,443.90000000000003L220.39999999999995,451.40000000000003L219.59999999999994,460.70000000000005L209.79999999999993,461.40000000000003L202.19999999999993,455.1L195.19999999999993,441.90000000000003L182.19999999999993,441.1L171.79999999999993,445.20000000000005L161.29999999999993,442.50000000000006L151.49999999999991,436.40000000000003L141.0999999999999,431.70000000000005L113.1999999999999,420.80000000000007L105.59999999999991,395.70000000000005L108.59999999999991,389.70000000000005L110.49999999999991,383.30000000000007L110.09999999999991,379.6000000000001L111.3999999999999,376.50000000000006L119.9999999999999,373.70000000000005L128.8999999999999,371.30000000000007L141.59999999999988,376.00000000000006L155.09999999999988,378.70000000000005L167.19999999999987,384.90000000000003L180.4999999999999,385.90000000000003L186.2999999999999,382.20000000000005L192.5999999999999,380.00000000000006L200.0999999999999,380.80000000000007L207.49999999999991,379.50000000000006L220.39999999999992,375.70000000000005L230.29999999999993,381.20000000000005Z" class="sm_state sm_state_DOM1969" opacity="1" stroke-opacity="1" stroke-width="1.2600000000000002" stroke-linejoin="round" transform="matrix(0.6495,0,0,0.6495,0,0)" style="-webkit-tap-highlight-color: rgba(0, 0, 0, 0); opacity: 1; cursor: pointer; stroke-opacity: 1; stroke-linejoin: round; fill-opacity: 1;" fill-opacity="1">
</path>
<path fill="#88a4bc" stroke="#ffffff" d="M487,128L496.7,133.9L505.9,140.20000000000002L509.09999999999997,149.3L509.9,159.20000000000002L513.1999999999999,171.3L522.5999999999999,178.20000000000002L530.8999999999999,179.3L534.5999999999999,186L547.8,197.2L566.4,201.89999999999998L584.6999999999999,210.49999999999997L603.4999999999999,214.19999999999996L616.6999999999999,207.79999999999995L633.0999999999999,211.69999999999996L633.0999999999999,219.49999999999997L621.6999999999999,227.19999999999996L617.9999999999999,231.79999999999995L616.9999999999999,240.79999999999995L611.6999999999999,245.89999999999995L593.9,245.19999999999996L579.4,246.89999999999995L578.4,254.59999999999994L574.3,260.0999999999999L567,259.7999999999999L569.5,251.8999999999999L570.4,244.1999999999999L564.6999999999999,240.49999999999991L557.9,238.39999999999992L549.1999999999999,237.79999999999993L540.8,237.69999999999993L534.4,235.69999999999993L521.1999999999999,229.59999999999994L513.4999999999999,228.99999999999994L501.6999999999999,227.59999999999994L489.59999999999985,227.79999999999993L484.09999999999985,228.79999999999993L478.39999999999986,227.79999999999993L473.09999999999985,226.39999999999992L468.89999999999986,227.79999999999993L468.9999999999999,228.99999999999991L455.4999999999999,219.99999999999991L446.6999999999999,206.39999999999992L446.9999999999999,194.19999999999993L450.7999999999999,181.79999999999993L452.9999999999999,168.39999999999992L458.2999999999999,156.19999999999993L469.6999999999999,150.69999999999993L477.39999999999986,144.09999999999994L481.1999999999999,127.49999999999994L486.9999999999999,127.99999999999994Z" class="sm_state sm_state_DOM1979" opacity="1" stroke-opacity="1" stroke-width="1.2600000000000002" stroke-linejoin="round" transform="matrix(0.6495,0,0,0.6495,0,0)" style="-webkit-tap-highlight-color: rgba(0, 0, 0, 0); opacity: 1; cursor: pointer; stroke-opacity: 1; stroke-linejoin: round; fill-opacity: 1;" fill-opacity="1"></path><path fill="#88a4bc" stroke="#ffffff" d="M450.4,351.4L445.29999999999995,363L444.4,375.4L445.59999999999997,385.5L442.59999999999997,395.6L444.59999999999997,404.90000000000003L448.7,413.40000000000003L442.8,419.8L436,424.5L422.7,428.4L415.4,439.29999999999995L409.4,427.4L403.79999999999995,417.7L394.99999999999994,413.2L385.99999999999994,407.2L379.69999999999993,405L374.99999999999994,400.4L372.8999999999999,396.2L368.8999999999999,393.7L363.2999999999999,379.2L355.4999999999999,363.8L367.6999999999999,363.5L379.7999999999999,363.6L383.8999999999999,359L389.5999999999999,353.7L396.69999999999993,344.7L400.5999999999999,331.9L411.9999999999999,338.59999999999997L422.89999999999986,346.7L429.6999999999999,345.9L436.1999999999999,343.59999999999997L443.4999999999999,346.49999999999994L450.39999999999986,351.3999999999999Z" class="sm_state sm_state_DOM1978" opacity="1" stroke-opacity="1" stroke-width="1.2600000000000002" stroke-linejoin="round" transform="matrix(0.6495,0,0,0.6495,0,0)" style="-webkit-tap-highlight-color: rgba(0, 0, 0, 0); opacity: 1; cursor: pointer; stroke-opacity: 1; stroke-linejoin: round; fill-opacity: 1;" fill-opacity="1"></path><path fill="#88a4bc" stroke="#ffffff" d="M496.5,490.5L490.6,490.7L485.5,491.5L482.1,493.4L477.40000000000003,490.5L472.3,489.4L437.5,489.5L431.7,491.4L420.5,497.7L414.2,499.09999999999997L395.4,499.09999999999997L391,497.29999999999995L390.7,494.9L395.2,491.29999999999995L396.4,489.49999999999994L395.59999999999997,486.3999999999999L391.9,483.5999999999999L389.79999999999995,480.7999999999999L388.19999999999993,479.7999999999999L403.29999999999995,476.8999999999999L413.09999999999997,465.5999999999999L412.4,457.4999999999999L414.59999999999997,449.7999999999999L417.2,444.5999999999999L415.4,439.2999999999999L422.7,428.3999999999999L436,424.49999999999994L442.8,419.79999999999995L448.7,413.4L461.8,419.2L472.5,429.59999999999997L481.1,433.59999999999997L480.6,440.49999999999994L473.6,444.59999999999997L472.20000000000005,451.99999999999994L477.20000000000005,458.3999999999999L482.70000000000005,464.7999999999999L486.6,472.0999999999999L493.6,478.5999999999999L494.8,484.9999999999999L496.5,490.4999999999999Z" class="sm_state sm_state_DOM1977" opacity="1" stroke-opacity="1" stroke-width="1.2600000000000002" stroke-linejoin="round" transform="matrix(0.6495,0,0,0.6495,0,0)" style="-webkit-tap-highlight-color: rgba(0, 0, 0, 0); opacity: 1; cursor: pointer; stroke-opacity: 1; stroke-linejoin: round; fill-opacity: 1;" fill-opacity="1"></path><path fill="#88a4bc" stroke="#ffffff" d="M439,250.3L442.1,257.1L444.5,263.8L445.8,271.5L452.7,274.9L455.09999999999997,278L455.99999999999994,282.3L460.19999999999993,287.90000000000003L477.5999999999999,300.50000000000006L484.69999999999993,312.80000000000007L479.0999999999999,319.00000000000006L477.2999999999999,328.00000000000006L467.9999999999999,332.50000000000006L464.0999999999999,340.6000000000001L460.4999999999999,351.6000000000001L450.39999999999986,351.4000000000001L443.4999999999999,346.5000000000001L436.1999999999999,343.60000000000014L429.6999999999999,345.90000000000015L422.89999999999986,346.70000000000016L411.9999999999999,338.60000000000014L400.5999999999999,331.90000000000015L384.69999999999993,313.20000000000016L387.0999999999999,293.3000000000002L403.2999999999999,280.00000000000017L403.5999999999999,260.3000000000002L409.19999999999993,249.80000000000018L422.19999999999993,246.2000000000002L425.0999999999999,240.90000000000018L430.3999999999999,239.00000000000017L436.8999999999999,242.80000000000018L438.99999999999994,250.30000000000018Z" class="sm_state sm_state_DOM1976" opacity="1" stroke-opacity="1" stroke-width="1.2600000000000002" stroke-linejoin="round" transform="matrix(0.6495,0,0,0.6495,0,0)" style="-webkit-tap-highlight-color: rgba(0, 0, 0, 0); opacity: 1; cursor: pointer; stroke-opacity: 1; stroke-linejoin: round; fill-opacity: 1;" fill-opacity="1"></path><path fill="#88a4bc" stroke="#ffffff" d="M418.6,179.4L422.6,189.20000000000002L428.1,198.3L435.6,205.70000000000002L446.70000000000005,206.4L455.50000000000006,220L469.00000000000006,229L470.1000000000001,230.5L464.00000000000006,232.8L457.40000000000003,236.3L446.6,241.4L439,250.3L436.9,242.8L430.4,239L425.09999999999997,240.9L422.2,246.20000000000002L409.2,249.8L403.59999999999997,260.3L403.29999999999995,280L387.09999999999997,293.3L384.7,313.2L400.59999999999997,331.9L396.7,344.7L389.59999999999997,353.7L383.9,359L379.79999999999995,363.6L367.69999999999993,363.5L355.49999999999994,363.8L359.29999999999995,347.40000000000003L348.99999999999994,334.8L332.3999999999999,326.40000000000003L320.8999999999999,310.6L317.7999999999999,284.1L303.5999999999999,274.40000000000003L301.2999999999999,268.20000000000005L296.7999999999999,263.6L297.9999999999999,257.20000000000005L295.9999999999999,251.10000000000005L303.89999999999986,247.20000000000005L312.79999999999984,243.30000000000004L329.6999999999998,235.10000000000005L343.8999999999998,224.30000000000004L347.1999999999998,216.60000000000005L353.0999999999998,216.20000000000005L360.1999999999998,217.60000000000005L359.3999999999998,209.30000000000004L361.3999999999998,199.60000000000005L357.0999999999998,192.00000000000006L348.7999999999998,189.70000000000005L342.19999999999976,184.70000000000005L344.19999999999976,178.80000000000004L350.89999999999975,176.90000000000003L364.4999999999998,169.70000000000005L378.7999999999998,165.00000000000006L385.2999999999998,169.90000000000006L393.8999999999998,170.70000000000007L399.8999999999998,168.30000000000007L405.49999999999983,167.10000000000008L410.99999999999983,180.9000000000001L418.59999999999985,179.4000000000001Z" class="sm_state sm_state_DOM1975" opacity="1" stroke-opacity="1" stroke-width="1.2600000000000002" stroke-linejoin="round" transform="matrix(0.6495,0,0,0.6495,0,0)" style="-webkit-tap-highlight-color: rgba(0, 0, 0, 0); opacity: 1; cursor: pointer; stroke-opacity: 1; stroke-linejoin: round; fill-opacity: 1;" fill-opacity="1"></path><path fill="#88a4bc" stroke="#ffffff" d="M355.5,363.8L363.3,379.2L368.90000000000003,393.7L372.90000000000003,396.2L375.00000000000006,400.4L379.70000000000005,405L386.00000000000006,407.2L395.00000000000006,413.2L403.80000000000007,417.7L409.4000000000001,427.4L415.4000000000001,439.29999999999995L417.2000000000001,444.59999999999997L414.6000000000001,449.79999999999995L412.4000000000001,457.49999999999994L413.1000000000001,465.59999999999997L403.30000000000007,476.9L388.20000000000005,479.79999999999995L384.6,477.4L383.5,474.79999999999995L384.1,471.99999999999994L387.6,469.69999999999993L389,467.69999999999993L390.3,461.8999999999999L390.40000000000003,455.8999999999999L389.70000000000005,450.5999999999999L388.20000000000005,447.19999999999993L382.20000000000005,439.69999999999993L378.6,437.0999999999999L372.3,434.69999999999993L367,433.3999999999999L360.2,432.8999999999999L354.4,434.49999999999994L352,439.49999999999994L352.9,445.3999999999999L352.2,447.7999999999999L344.09999999999997,455.7999999999999L341.9,457.2999999999999L339,458.0999999999999L335.8,457.9999999999999L330.2,456.1999999999999L327.7,455.9999999999999L325.59999999999997,456.7999999999999L321.79999999999995,459.4999999999999L319.29999999999995,460.0999999999999L315.79999999999995,459.5999999999999L311.19999999999993,463.9999999999999L308.3999999999999,469.89999999999986L303.3999999999999,471.79999999999984L296.19999999999993,480.39999999999986L292.3999999999999,482.6999999999999L285.8999999999999,483.4999999999999L283.3999999999999,482.4999999999999L287.3999999999999,475.6999999999999L285.2999999999999,466.4999999999999L284.3999999999999,460.39999999999986L285.0999999999999,456.1999999999999L277.19999999999993,454.2999999999999L268.3999999999999,451.8999999999999L264.99999999999994,450.5999999999999L262.3999999999999,448.5999999999999L259.7999999999999,441.9999999999999L268.1999999999999,434.7999999999999L273.59999999999985,427.6999999999999L272.79999999999984,418.4999999999999L269.99999999999983,413.89999999999986L275.79999999999984,411.6999999999999L275.89999999999986,406.59999999999985L268.59999999999985,401.79999999999984L260.09999999999985,400.1999999999998L243.19999999999985,394.29999999999984L230.29999999999984,381.1999999999998L242.19999999999985,377.99999999999983L249.29999999999984,367.3999999999998L253.79999999999984,365.6999999999998L258.89999999999986,363.1999999999998L258.29999999999984,359.5999999999998L256.49999999999983,356.3999999999998L259.29999999999984,352.49999999999983L259.59999999999985,348.8999999999998L257.89999999999986,338.0999999999998L266.6999999999999,335.2999999999998L268.9999999999999,340.2999999999998L272.9999999999999,341.8999999999998L276.6999999999999,338.2999999999998L278.7999999999999,333.4999999999998L278.8999999999999,318.69999999999976L280.7999999999999,304.4999999999998L283.9999999999999,297.2999999999998L290.6999999999999,292.5999999999998L294.4999999999999,288.8999999999998L295.5999999999999,283.3999999999998L301.2999999999999,280.49999999999983L303.5999999999999,274.3999999999998L317.7999999999999,284.0999999999998L320.8999999999999,310.5999999999998L332.3999999999999,326.3999999999998L348.99999999999994,334.7999999999998L359.29999999999995,347.3999999999998L355.49999999999994,363.7999999999998Z" class="sm_state sm_state_DOM1974" opacity="1" stroke-opacity="1" stroke-width="1.2600000000000002" stroke-linejoin="round" transform="matrix(0.6495,0,0,0.6495,0,0)" style="-webkit-tap-highlight-color: rgba(0, 0, 0, 0); opacity: 1; cursor: pointer; stroke-opacity: 1; stroke-linejoin: round; fill-opacity: 1;" fill-opacity="1"></path><path fill="#88a4bc" stroke="#ffffff" d="M136.3,685.4L131.70000000000002,687L127.20000000000002,684.4L127.10000000000002,678.3L129.60000000000002,671.0999999999999L132.60000000000002,665.3999999999999L136.50000000000003,667.5999999999999L140.40000000000003,670.3999999999999L147.30000000000004,677.0999999999999L143.10000000000005,678.3999999999999L136.30000000000004,685.3999999999999ZM197.8,599.3L196.70000000000002,601.9L197.50000000000003,602.8L195.00000000000003,607L191.10000000000002,608.6L190.10000000000002,609.8000000000001L188.3,615.5000000000001L184,622.4000000000001L174.8,649.1000000000001L172,654.4000000000001L160.8,670.1000000000001L158.10000000000002,668.8000000000002L155.8,666.6000000000001L155.60000000000002,665.4000000000001L153.00000000000003,663.1000000000001L134.30000000000004,632.2000000000002L129.80000000000004,627.3000000000002L120.60000000000004,623.7000000000002L99.00000000000003,626.7000000000002L89.70000000000003,624.4000000000002L92.30000000000003,622.4000000000002L101.00000000000003,613.3000000000002L102.80000000000003,609.7000000000002L102.40000000000002,603.6000000000001L101.30000000000003,599.2000000000002L97.10000000000002,591.1000000000001L94.20000000000002,586.6000000000001L93.40000000000002,581.5000000000001L95.30000000000003,570.7000000000002L93.20000000000003,565.8000000000002L88.50000000000003,560.2000000000002L78.60000000000002,552.0000000000001L63.40000000000002,546.2000000000002L66.60000000000002,537.6000000000001L67.60000000000002,532.6000000000001L67.00000000000003,524.3000000000002L67.20000000000003,519.6000000000001L66.50000000000003,516.4000000000001L63.60000000000003,508.2000000000001L63.20000000000003,505.5000000000001L64.00000000000003,499.9000000000001L66.10000000000002,494.5000000000001L78.20000000000002,473.7000000000001L78.80000000000001,473.9000000000001L101.20000000000002,486.6000000000001L124.30000000000001,498.1000000000001L134.3,500.6000000000001L143.70000000000002,504.4000000000001L151.4,511.7000000000001L159.5,518.6000000000001L167.9,523.4000000000001L168.5,540.3000000000001L168,545.4000000000001L166.5,548.5000000000001L160.9,550.6000000000001L159,553.1000000000001L164.9,567.7000000000002L178.3,578.8000000000002L185.10000000000002,577.1000000000001L193.3,577.5000000000001L197.60000000000002,587.5000000000001L197.60000000000002,598.6000000000001L197.8,599.3000000000002Z" class="sm_state sm_state_DOM1973" opacity="1" stroke-opacity="1" stroke-width="1.2600000000000002" stroke-linejoin="round" transform="matrix(0.6495,0,0,0.6495,0,0)" style="-webkit-tap-highlight-color: rgba(0, 0, 0, 0); opacity: 1; cursor: pointer; stroke-opacity: 1; stroke-linejoin: round; fill-opacity: 1;" fill-opacity="1"></path><path fill="#88a4bc" stroke="#ffffff" d="M185.2,216.2L183.29999999999998,224.79999999999998L182.79999999999998,233.7L174.2,240.29999999999998L163.89999999999998,240.89999999999998L155.39999999999998,235.7L146.2,234.2L140.7,244.5L137.5,256.8L133.3,265.90000000000003L124.9,268.40000000000003L117.2,269.1L111.2,274.6L104.5,288.90000000000003L102.2,304.40000000000003L106.9,310.40000000000003L103.60000000000001,324.40000000000003L109.80000000000001,328.40000000000003L115.30000000000001,333.20000000000005L117.20000000000002,339.80000000000007L117.20000000000002,346.9000000000001L122.30000000000001,352.30000000000007L129.60000000000002,354.00000000000006L132.70000000000002,362.1000000000001L128.9,371.30000000000007L111.80000000000001,367.6000000000001L94.4,366.2000000000001L76.10000000000001,363.3000000000001L61.00000000000001,361.5000000000001L68.30000000000001,357.0000000000001L72.10000000000001,353.9000000000001L75.4,348.5000000000001L77.2,343.7000000000001L78.60000000000001,338.4000000000001L79.00000000000001,333.0000000000001L76.80000000000001,321.7000000000001L76.50000000000001,310.1000000000001L75.00000000000001,304.80000000000007L73.00000000000001,302.20000000000005L66.80000000000001,296.50000000000006L64.30000000000001,293.50000000000006L60.40000000000001,285.40000000000003L58.000000000000014,283.40000000000003L51.600000000000016,283.20000000000005L44.90000000000001,285.50000000000006L40.000000000000014,286.30000000000007L39.20000000000002,281.30000000000007L43.90000000000002,278.1000000000001L57.80000000000002,274.30000000000007L61.40000000000002,272.1000000000001L73.10000000000002,259.00000000000006L81.20000000000002,247.60000000000005L85.40000000000002,243.90000000000006L94.60000000000002,237.30000000000007L98.00000000000003,232.20000000000007L99.40000000000003,227.30000000000007L100.60000000000004,210.10000000000008L97.20000000000003,208.4000000000001L101.70000000000003,204.10000000000008L107.20000000000003,200.80000000000007L112.90000000000003,198.70000000000007L114.90000000000003,193.40000000000006L118.20000000000003,189.40000000000006L124.90000000000003,191.20000000000007L131.30000000000004,193.40000000000006L136.90000000000003,190.00000000000006L141.50000000000003,185.20000000000005L152.80000000000004,192.40000000000003L161.20000000000005,203.70000000000005L173.30000000000004,209.80000000000004L185.20000000000005,216.20000000000005Z" class="sm_state sm_state_DOM1972" opacity="1" stroke-opacity="1" stroke-width="1.2600000000000002" stroke-linejoin="round" transform="matrix(0.6495,0,0,0.6495,0,0)" style="-webkit-tap-highlight-color: rgba(0, 0, 0, 0); opacity: 1; cursor: pointer; stroke-opacity: 1; stroke-linejoin: round; fill-opacity: 1;" fill-opacity="1"></path><path fill="#88a4bc" stroke="#ffffff" d="M128.9,371.3L120,373.7L111.4,376.5L110.10000000000001,379.6L110.50000000000001,383.3L108.60000000000001,389.7L105.60000000000001,395.7L113.2,420.8L141.1,431.7L151.5,436.4L161.3,442.5L171.8,445.2L182.20000000000002,441.09999999999997L195.20000000000002,441.9L202.20000000000002,455.09999999999997L209.8,461.4L219.60000000000002,460.7L210.60000000000002,472.7L196.3,476.59999999999997L182.60000000000002,471.9L170.50000000000003,474.5L174.50000000000003,490.9L178.80000000000004,506.59999999999997L172.50000000000003,507.4L165.70000000000002,505.5L160.70000000000002,510.9L159.50000000000003,518.6L151.40000000000003,511.70000000000005L143.70000000000005,504.40000000000003L134.30000000000004,500.6L124.30000000000004,498.1L101.20000000000005,486.6L78.80000000000004,473.90000000000003L78.20000000000005,473.70000000000005L81.50000000000004,467.90000000000003L78.50000000000004,464.8L74.60000000000004,462.3L60.000000000000036,456.7L49.80000000000004,449.9L47.60000000000004,447.29999999999995L43.400000000000034,441.19999999999993L41.20000000000003,439.19999999999993L30.60000000000003,436.49999999999994L26.50000000000003,434.29999999999995L24.900000000000027,428.99999999999994L25.900000000000027,425.79999999999995L29.400000000000027,423.09999999999997L28.700000000000028,418.79999999999995L26.50000000000003,415.69999999999993L16.700000000000028,405.49999999999994L13.300000000000027,398.8999999999999L9.900000000000027,393.49999999999994L3.5000000000000266,389.19999999999993L1.3000000000000265,386.8999999999999L1.0000000000000264,385.3999999999999L4.700000000000027,382.5999999999999L14.700000000000028,380.4999999999999L35.10000000000002,384.2999999999999L45.700000000000024,380.6999999999999L49.200000000000024,376.7999999999999L54.800000000000026,367.2999999999999L58.50000000000003,363.0999999999999L61.00000000000003,361.4999999999999L76.10000000000002,363.2999999999999L94.40000000000002,366.1999999999999L111.80000000000001,367.59999999999985L128.9,371.29999999999984Z" class="sm_state sm_state_DOM1971" opacity="1" stroke-opacity="1" stroke-width="1.2600000000000002" stroke-linejoin="round" transform="matrix(0.6495,0,0,0.6495,0,0)" style="-webkit-tap-highlight-color: rgba(0, 0, 0, 0); opacity: 1; cursor: pointer; stroke-opacity: 1; stroke-linejoin: round; fill-opacity: 1;" fill-opacity="1"></path><path fill="#88a4bc" stroke="#ffffff" d="M270,413.9L272.8,418.5L273.6,427.7L268.20000000000005,434.8L259.80000000000007,442L262.4000000000001,448.6L265.0000000000001,450.6L268.4000000000001,451.90000000000003L277.2000000000001,454.3L285.1000000000001,456.2L284.4000000000001,460.4L285.30000000000007,466.5L287.4000000000001,475.7L283.4000000000001,482.5L278.4000000000001,474.8L275.6000000000001,472.7L272.7000000000001,471.4L260.9000000000001,468.79999999999995L255.50000000000009,468.69999999999993L251.3000000000001,470.3999999999999L249.00000000000009,477.19999999999993L246.60000000000008,481.3999999999999L246.00000000000009,484.5999999999999L246.50000000000009,488.19999999999993L249.60000000000008,492.0999999999999L251.60000000000008,495.19999999999993L256.00000000000006,510.79999999999995L257.40000000000003,513.4L257.50000000000006,516.8L252.20000000000005,524.9L247.70000000000005,536.4L222.00000000000006,574L219.70000000000005,580.5L218.60000000000005,582.8L216.00000000000006,584.5999999999999L210.60000000000005,587.3999999999999L207.30000000000004,590.1999999999998L204.90000000000003,592.9999999999998L203.10000000000002,596.4999999999998L201.40000000000003,601.1999999999998L197.80000000000004,599.2999999999998L197.60000000000005,598.5999999999998L197.60000000000005,587.4999999999998L193.30000000000004,577.4999999999998L185.10000000000005,577.0999999999998L178.30000000000004,578.7999999999998L164.90000000000003,567.6999999999998L159.00000000000003,553.0999999999998L160.90000000000003,550.5999999999998L166.50000000000003,548.4999999999998L168.00000000000003,545.3999999999997L168.50000000000003,540.2999999999997L167.90000000000003,523.3999999999997L159.50000000000003,518.5999999999998L160.70000000000002,510.8999999999998L165.70000000000002,505.49999999999983L172.50000000000003,507.3999999999998L178.80000000000004,506.5999999999998L174.50000000000003,490.8999999999998L170.50000000000003,474.49999999999983L182.60000000000002,471.8999999999998L196.3,476.5999999999998L210.60000000000002,472.6999999999998L219.60000000000002,460.6999999999998L220.40000000000003,451.3999999999998L225.10000000000002,443.8999999999998L234.10000000000002,437.99999999999983L237.10000000000002,433.29999999999984L241.50000000000003,429.6999999999998L249.80000000000004,426.6999999999998L256.80000000000007,421.49999999999983L261.1000000000001,414.49999999999983L264.7000000000001,406.99999999999983L270.0000000000001,413.8999999999998Z" class="sm_state sm_state_DOM1970" opacity="1" stroke-opacity="1" stroke-width="1.2600000000000002" stroke-linejoin="round" transform="matrix(0.6495,0,0,0.6495,0,0)" style="-webkit-tap-highlight-color: rgba(0, 0, 0, 0); opacity: 1; cursor: pointer; stroke-opacity: 1; stroke-linejoin: round; fill-opacity: 1;" fill-opacity="1"></path><path fill="#88a4bc" stroke="#ffffff" d="M843.6,442L837.8000000000001,439.6L826.5000000000001,437.90000000000003L813.4000000000001,443.3L793.9000000000001,444.2L792.2,436.3L788.8000000000001,428L785.6,425.2L783.8000000000001,421.4L787.3000000000001,413.79999999999995L791.6,406.59999999999997L805.3000000000001,398.09999999999997L815.7,384.9L822.5,371.59999999999997L834.4,366.99999999999994L838.9,377.29999999999995L844.1,386.79999999999995L851,392.99999999999994L856.7,400.19999999999993L857,409.0999999999999L853.3,417.3999999999999L848.5,430.3999999999999L843.6,441.99999999999994Z" class="sm_state sm_state_DOM1988" opacity="1" stroke-opacity="1" stroke-width="1.2600000000000002" stroke-linejoin="round" transform="matrix(0.6495,0,0,0.6495,0,0)" style="-webkit-tap-highlight-color: rgba(0, 0, 0, 0); opacity: 1; cursor: pointer; stroke-opacity: 1; stroke-linejoin: round; fill-opacity: 1;" fill-opacity="1"></path><path fill="#88a4bc" stroke="#ffffff" d="M875.1,276.9L870,283.5L862.3,289.5L862.5,293.4L860.9,296.59999999999997L858.8,308.59999999999997L866.1999999999999,322.7L860.5999999999999,339L846.6999999999999,350L839.4,351.2L833.4,354.8L832.3,361L834.4,367L822.5,371.6L815.7,384.90000000000003L805.3000000000001,398.1L791.6,406.6L793.6,399.20000000000005L795,392.50000000000006L787.1,391.70000000000005L778.5,392.90000000000003L770.8,387.20000000000005L764.1999999999999,380.00000000000006L759.8,378.70000000000005L755.3,379.20000000000005L748,374.30000000000007L751.3,363.70000000000005L756,352.80000000000007L757.1,340.6000000000001L752.9,329.1000000000001L737.4,312.80000000000007L727.6,292.9000000000001L743,290.1000000000001L765.4,295.4000000000001L757.9,281.9000000000001L759.3,265.0000000000001L769.8,267.9000000000001L774.0999999999999,267.6000000000001L779.1999999999999,264.7000000000001L777.4999999999999,262.6000000000001L774.0999999999999,260.50000000000006L774.0999999999999,257.70000000000005L778.8999999999999,256.40000000000003L783.1999999999998,260.20000000000005L788.8999999999999,269.50000000000006L792.5999999999999,271.70000000000005L796.6999999999999,272.90000000000003L800.1999999999999,274.50000000000006L801.9999999999999,277.50000000000006L805.2999999999998,274.90000000000003L811.8999999999999,271.8L814.9999999999999,269.5L812.8999999999999,267.2L818.6999999999998,265.8L822.3999999999999,261.6L833.1999999999998,262.1L838.8999999999999,263.20000000000005L843.9999999999999,265.1L848.4999999999999,267.6L849.2999999999998,270.5L850.3999999999999,271.5L856.3999999999999,273.3L866.0999999999999,275.40000000000003L872.1999999999999,275.6L875.0999999999999,276.90000000000003Z" class="sm_state sm_state_DOM1986" opacity="1" stroke-opacity="1" stroke-width="1.2600000000000002" stroke-linejoin="round" transform="matrix(0.6495,0,0,0.6495,0,0)" style="-webkit-tap-highlight-color: rgba(0, 0, 0, 0); opacity: 1; cursor: pointer; stroke-opacity: 1; stroke-linejoin: round; fill-opacity: 1;" fill-opacity="1"></path><path fill="#88a4bc" stroke="#ffffff" d="M895.3,507.3L908,509L922,508.6L925.7,509.90000000000003L928.4000000000001,513.6L931.5000000000001,519.2L933.4000000000001,524.4000000000001L933.0000000000001,526.6000000000001L928.9000000000001,525.7000000000002L920.1000000000001,521.7000000000002L915.6000000000001,520.8000000000002L910.7000000000002,521.3000000000002L902.3000000000002,524.0000000000002L897.7000000000002,524.7000000000003L888.2000000000002,522.1000000000003L881.4000000000002,515.9000000000002L877.0000000000002,508.3000000000002L874.6000000000003,501.20000000000016L878.6000000000003,500.00000000000017L883.4000000000002,500.90000000000015L888.1000000000003,503.3000000000001L892.2000000000003,506.2000000000001L895.3000000000003,507.3000000000001ZM843.5999999999999,442L848.4999999999999,430.4L853.2999999999998,417.4L856.9999999999999,409.09999999999997L856.6999999999999,400.2L850.9999999999999,393L844.0999999999999,386.8L838.8999999999999,377.3L834.3999999999999,367L832.2999999999998,361L833.3999999999999,354.8L839.3999999999999,351.2L846.6999999999998,350L860.5999999999998,339L866.1999999999998,322.7L858.7999999999998,308.59999999999997L860.8999999999999,296.59999999999997L862.4999999999999,293.4L862.2999999999998,289.5L869.9999999999999,283.5L875.0999999999999,276.9L879.8,279.79999999999995L884.5999999999999,280.19999999999993L887.3999999999999,281.29999999999995L918.9999999999999,310.69999999999993L930.5999999999999,324.8999999999999L946.8999999999999,337.3999999999999L958.6999999999998,345.5999999999999L963.6999999999998,348.2999999999999L975.9999999999998,360.0999999999999L991.4999999999998,369.5999999999999L998.9999999999998,381.0999999999999L997.4999999999998,392.2999999999999L971.9999999999998,431.2999999999999L968.3999999999997,434.7999999999999L967.5999999999998,437.4999999999999L968.0999999999998,447.39999999999986L967.5999999999998,450.29999999999984L964.4999999999998,455.09999999999985L959.9999999999998,457.39999999999986L954.3999999999997,458.09999999999985L947.9999999999998,458.09999999999985L942.9999999999998,456.39999999999986L932.2999999999997,449.29999999999984L928.3999999999997,448.1999999999998L923.8999999999997,451.1999999999998L924.5999999999998,455.79999999999984L925.9999999999998,461.1999999999998L923.6999999999998,466.79999999999984L920.3999999999999,471.29999999999984L918.2999999999998,476.39999999999986L914.0999999999998,493.09999999999985L912.5999999999998,495.99999999999983L909.4999999999998,497.1999999999998L886.4999999999998,498.99999999999983L881.8999999999997,497.29999999999984L881.1999999999997,486.79999999999984L874.5999999999997,472.99999999999983L865.5999999999997,459.49999999999983L857.5999999999997,450.29999999999984L849.0999999999997,444.39999999999986L843.5999999999997,441.9999999999999Z" class="sm_state sm_state_DOM1987" opacity="1" stroke-opacity="1" stroke-width="1.2600000000000002" stroke-linejoin="round" transform="matrix(0.6495,0,0,0.6495,0,0)" style="-webkit-tap-highlight-color: rgba(0, 0, 0, 0); opacity: 1; cursor: pointer; stroke-opacity: 1; stroke-linejoin: round; fill-opacity: 1;" fill-opacity="1"></path><path fill="#88a4bc" stroke="#ffffff" d="M500,348.1L500.3,360.90000000000003L507.6,372.8L505.3,379.2L503.90000000000003,386.2L506.8,396.4L511.90000000000003,405.5L518.5,410.5L523.6,416.7L524.3000000000001,421.59999999999997L527.4000000000001,424.9L533.6000000000001,424.7L539.7000000000002,425L543.1000000000001,430.1L543.3000000000002,436.3L544.3000000000002,438.1L540.9000000000002,439.8L534.9000000000002,445.2L530.3000000000002,452.4L528.5000000000002,461L527.0000000000002,463.4L520.8000000000002,466.7L519.4000000000002,468.8L518.3000000000002,471.90000000000003L509.1000000000002,480.50000000000006L502.50000000000017,488.1000000000001L498.8000000000002,491.30000000000007L496.50000000000017,490.50000000000006L494.8000000000002,485.00000000000006L493.6000000000002,478.6000000000001L486.6000000000002,472.1000000000001L482.7000000000002,464.80000000000007L477.2000000000002,458.4000000000001L472.2000000000002,452.0000000000001L473.6000000000002,444.60000000000014L480.6000000000002,440.5000000000001L481.1000000000002,433.60000000000014L472.50000000000017,429.60000000000014L461.8000000000002,419.20000000000016L448.70000000000016,413.40000000000015L444.60000000000014,404.90000000000015L442.60000000000014,395.60000000000014L445.60000000000014,385.5000000000001L444.40000000000015,375.4000000000001L445.3000000000001,363.0000000000001L450.40000000000015,351.4000000000001L460.50000000000017,351.6000000000001L464.1000000000002,340.6000000000001L468.00000000000017,332.50000000000006L477.3000000000002,328.00000000000006L481.70000000000016,333.70000000000005L486.50000000000017,339.20000000000005L493.50000000000017,343.20000000000005L500.00000000000017,348.1Z" class="sm_state sm_state_DOM1984" opacity="1" stroke-opacity="1" stroke-width="1.2600000000000002" stroke-linejoin="round" transform="matrix(0.6495,0,0,0.6495,0,0)" style="-webkit-tap-highlight-color: rgba(0, 0, 0, 0); opacity: 1; cursor: pointer; stroke-opacity: 1; stroke-linejoin: round; fill-opacity: 1;" fill-opacity="1"></path><path fill="#88a4bc" stroke="#ffffff" d="M578.2,422.7L572.6,424.09999999999997L564.1,428.2L557.1,433L550.6,435.5L552.2,425.2L546.1,416.2L546.8000000000001,408L554.1,403.9L560.8000000000001,413.9L565.9000000000001,414.4L571.0000000000001,413L578.6000000000001,414.2L578.2000000000002,422.7Z" class="sm_state sm_state_DOM1985" opacity="1" stroke-opacity="1" stroke-width="1.2600000000000002" stroke-linejoin="round" transform="matrix(0.6495,0,0,0.6495,0,0)" style="-webkit-tap-highlight-color: rgba(0, 0, 0, 0); opacity: 1; cursor: pointer; stroke-opacity: 1; stroke-linejoin: round; fill-opacity: 1;" fill-opacity="1"></path><path fill="#88a4bc" stroke="#ffffff" d="M607.4,183.9L606.8,185.4L605.9,193.1L603.3,200.29999999999998L601.5999999999999,207.39999999999998L603.4999999999999,214.2L584.6999999999999,210.5L566.4,201.9L547.8,197.20000000000002L534.5999999999999,186.00000000000003L530.8999999999999,179.30000000000004L522.5999999999999,178.20000000000005L513.1999999999999,171.30000000000004L509.8999999999999,159.20000000000005L509.0999999999999,149.30000000000004L505.8999999999999,140.20000000000005L496.69999999999993,133.90000000000003L486.99999999999994,128.00000000000003L487.8999999999999,119.80000000000003L489.49999999999994,112.40000000000002L495.29999999999995,112.00000000000001L501.59999999999997,112.40000000000002L515,104.60000000000002L520.1,89.60000000000002L519.9,87.90000000000002L528.9,78.20000000000002L534,75.80000000000001L549,76.10000000000001L556.4,75.30000000000001L559.6999999999999,75.80000000000001L563.9,78.20000000000002L573.1,88.10000000000002L576,94.80000000000003L575.9,102.10000000000002L571.4,117.90000000000002L576.9,120.20000000000002L578.9,125.30000000000001L578.8,138.5L579.5,144.2L581.2,148.79999999999998L599.3000000000001,175.89999999999998L607.4000000000001,183.89999999999998Z" class="sm_state sm_state_DOM1982" opacity="1" stroke-opacity="1" stroke-width="1.2600000000000002" stroke-linejoin="round" transform="matrix(0.6495,0,0,0.6495,0,0)" style="-webkit-tap-highlight-color: rgba(0, 0, 0, 0); opacity: 1; cursor: pointer; stroke-opacity: 1; stroke-linejoin: round; fill-opacity: 1;" fill-opacity="1"></path><path fill="#88a4bc" stroke="#ffffff" d="M648.3,241.8L648.0999999999999,243.9L648.8999999999999,251.6L647.2999999999998,260.3L643.6999999999998,268.5L635.7999999999998,262.6L627.1999999999998,257.70000000000005L611.6999999999998,245.90000000000003L616.9999999999998,240.80000000000004L617.9999999999998,231.80000000000004L621.6999999999998,227.20000000000005L633.0999999999998,219.50000000000006L633.0999999999998,211.70000000000005L616.6999999999998,207.80000000000004L603.4999999999998,214.20000000000005L601.5999999999998,207.40000000000003L603.2999999999998,200.30000000000004L605.8999999999999,193.10000000000005L606.7999999999998,185.40000000000006L607.3999999999999,183.90000000000006L608.4999999999999,184.90000000000006L617.6999999999999,188.70000000000007L623.1999999999999,187.80000000000007L633.8,183.70000000000007L639.1999999999999,182.80000000000007L651.4,182.30000000000007L656.8,181.10000000000008L662.4,178.9000000000001L670.4,173.50000000000009L673.5,172.8000000000001L676.3,173.4000000000001L682.0999999999999,176.3000000000001L685.5999999999999,176.9000000000001L692.1999999999999,175.2000000000001L695.0999999999999,174.9000000000001L698.0999999999999,175.4000000000001L699.1999999999999,176.2000000000001L700.4999999999999,179.3000000000001L705.2999999999998,176.9000000000001L721.0999999999998,183.4000000000001L725.6999999999998,186.7000000000001L728.7999999999998,180.5000000000001L733.7999999999998,175.90000000000012L746.0999999999998,169.0000000000001L753.9999999999998,166.6000000000001L755.8999999999997,169.90000000000012L753.7999999999997,176.80000000000013L749.7999999999997,184.90000000000012L755.1999999999997,186.90000000000012L761.2999999999997,186.90000000000012L767.2999999999997,185.40000000000012L772.1999999999997,182.80000000000013L773.7999999999997,189.10000000000014L770.2999999999997,194.10000000000014L765.3999999999997,198.60000000000014L762.9999999999998,203.50000000000014L761.7999999999997,208.70000000000013L758.5999999999997,213.40000000000012L753.8999999999996,216.90000000000012L747.9999999999997,218.30000000000013L726.6999999999997,214.40000000000012L703.2999999999997,216.20000000000013L697.7999999999997,214.60000000000014L687.7999999999997,209.60000000000014L653.1999999999997,205.30000000000013L649.2999999999997,206.30000000000013L647.7999999999997,210.20000000000013L646.8999999999997,223.90000000000012L644.8999999999997,235.5000000000001L645.6999999999997,239.90000000000012L648.2999999999997,241.80000000000013Z" class="sm_state sm_state_DOM1983" opacity="1" stroke-opacity="1" stroke-width="1.2600000000000002" stroke-linejoin="round" transform="matrix(0.6495,0,0,0.6495,0,0)" style="-webkit-tap-highlight-color: rgba(0, 0, 0, 0); opacity: 1; cursor: pointer; stroke-opacity: 1; stroke-linejoin: round; fill-opacity: 1;" fill-opacity="1"></path><path fill="#88a4bc" stroke="#ffffff" d="M759.3,265L757.9,281.9L765.4,295.4L743,290.09999999999997L727.6,292.9L737.4,312.79999999999995L752.9,329.09999999999997L757.1,340.59999999999997L756,352.79999999999995L751.3,363.69999999999993L748,374.29999999999995L738.7,380.79999999999995L734.3000000000001,391.49999999999994L728.5000000000001,398.99999999999994L720.8000000000001,408.19999999999993L716.7,398.79999999999995L712.9000000000001,389.19999999999993L700.5000000000001,370.29999999999995L698.6000000000001,358.59999999999997L697.0000000000001,346.7L692.2000000000002,337.7L692.2000000000002,327.7L697.0000000000001,321L702.7000000000002,315.1L708.3000000000002,311.70000000000005L713.4000000000002,308.1L708.4000000000002,303L698.6000000000003,301.7L685.3000000000003,294.4L671.7000000000003,287.59999999999997L656.2000000000003,279.79999999999995L643.7000000000003,268.49999999999994L647.3000000000003,260.29999999999995L648.9000000000003,251.59999999999997L648.1000000000004,243.89999999999998L648.3000000000004,241.79999999999998L651.7000000000004,244.2L666.6000000000004,241.89999999999998L671.8000000000004,243.79999999999998L678.3000000000004,241.79999999999998L691.0000000000005,246.7L697.8000000000004,246L693.9000000000004,243.2L688.3000000000004,241.89999999999998L688.3000000000004,239.89999999999998L702.8000000000004,239.09999999999997L707.0000000000005,239.89999999999998L711.9000000000004,243.49999999999997L715.6000000000005,252.29999999999998L720.2000000000005,255.79999999999998L724.8000000000005,257L734.1000000000005,258.2L759.3000000000005,265Z" class="sm_state sm_state_DOM1980" opacity="1" stroke-opacity="1" stroke-width="1.2600000000000002" stroke-linejoin="round" transform="matrix(0.6495,0,0,0.6495,0,0)" style="-webkit-tap-highlight-color: rgba(0, 0, 0, 0); opacity: 1; cursor: pointer; stroke-opacity: 1; stroke-linejoin: round; fill-opacity: 1;" fill-opacity="1"></path><path fill="#88a4bc" stroke="#ffffff" d="M611.7,245.9L627.2,257.7L635.8000000000001,262.59999999999997L643.7,268.49999999999994L656.2,279.79999999999995L671.7,287.59999999999997L685.3000000000001,294.4L698.6,301.7L708.4,303L713.4,308.1L708.3,311.70000000000005L702.6999999999999,315.1L696.9999999999999,321L692.1999999999999,327.7L676.0999999999999,344.7L660.6999999999999,372L650.9999999999999,368.3L641.6999999999999,370.3L636.5999999999999,373.6L630.6999999999999,374.90000000000003L614.9,380.70000000000005L602.4,393.90000000000003L600.1999999999999,385.8L594.4999999999999,380.2L592.9999999999999,374.59999999999997L589.2999999999998,369.59999999999997L583.0999999999998,362.59999999999997L575.6999999999998,356.79999999999995L563.1999999999998,356.19999999999993L559.6999999999998,356.29999999999995L556.4999999999998,357.4L554.5999999999998,362.59999999999997L542.9999999999998,367.99999999999994L530.1999999999998,365.49999999999994L521.2999999999998,362.99999999999994L512.6999999999998,359.79999999999995L507.6999999999998,350.79999999999995L499.99999999999983,348.09999999999997L493.49999999999983,343.2L486.49999999999983,339.2L481.6999999999998,333.7L477.29999999999984,328L479.09999999999985,319L484.6999999999999,312.8L498.6999999999999,309.8L510.1999999999999,307L515.3999999999999,302.3L522.5999999999999,300.6L533.0999999999999,302.5L536.3999999999999,297.5L541.8999999999999,298.5L550.6999999999998,302.8L558.2999999999998,296.90000000000003L562.9999999999999,278.3L566.9999999999999,259.8L574.2999999999998,260.1L578.3999999999999,254.60000000000002L579.3999999999999,246.90000000000003L593.8999999999999,245.20000000000005L611.6999999999998,245.90000000000003Z" class="sm_state sm_state_DOM1981" opacity="1" stroke-opacity="1" stroke-width="1.2600000000000002" stroke-linejoin="round" transform="matrix(0.6495,0,0,0.6495,0,0)" style="-webkit-tap-highlight-color: rgba(0, 0, 0, 0); opacity: 1; cursor: pointer; stroke-opacity: 1; stroke-linejoin: round; fill-opacity: 1;" fill-opacity="1"></path><path fill="#88a4bc" stroke="#ffffff" d="M748,374.3L755.3,379.2L759.8,378.7L764.1999999999999,380L770.8,387.2L778.5,392.9L787.1,391.7L795,392.5L793.6,399.2L791.6,406.59999999999997L787.3000000000001,413.79999999999995L783.8000000000001,421.4L785.6,425.2L788.8000000000001,428L792.2,436.3L793.9000000000001,444.2L788.5000000000001,443.3L776.6000000000001,439.3L771.2000000000002,438.40000000000003L766.5000000000001,436.90000000000003L758.7000000000002,430.20000000000005L752.7000000000002,428.6L747.4000000000002,429.70000000000005L742.1000000000003,431.50000000000006L736.7000000000003,431.90000000000003L731.3000000000003,428.6L725.6000000000003,433.90000000000003L690.4000000000002,436.6L679.8000000000002,440.5L674.3000000000002,440.7L673.5000000000002,440.09999999999997L674.4000000000002,432.59999999999997L676.2000000000002,423.49999999999994L660.2000000000002,420.19999999999993L649.5000000000001,408.69999999999993L653.8000000000001,401.19999999999993L659.4000000000001,393.99999999999994L659.9000000000001,386.79999999999995L658.7,379.59999999999997L655.7,380.09999999999997L657.3000000000001,375.7L660.7,372L676.1,344.7L692.2,327.7L692.2,337.7L697,346.7L698.6,358.59999999999997L700.5,370.29999999999995L712.9,389.19999999999993L716.6999999999999,398.79999999999995L720.8,408.19999999999993L728.5,398.99999999999994L734.3,391.49999999999994L738.6999999999999,380.79999999999995L747.9999999999999,374.29999999999995Z" class="sm_state sm_state_DOM1396" opacity="1" stroke-opacity="1" stroke-width="1.2600000000000002" stroke-linejoin="round" transform="matrix(0.6495,0,0,0.6495,0,0)" style="-webkit-tap-highlight-color: rgba(0, 0, 0, 0); opacity: 1; cursor: pointer; stroke-opacity: 1; stroke-linejoin: round; fill-opacity: 1;" fill-opacity="1"></path><path fill="#88a4bc" stroke="#ffffff" d="M567,259.8L563,278.3L558.3,296.90000000000003L550.6999999999999,302.8L541.9,298.5L536.4,297.5L533.1,302.5L522.6,300.6L515.4,302.3L510.2,307L498.7,309.8L484.7,312.8L477.59999999999997,300.5L460.2,287.9L456,282.29999999999995L455.1,277.99999999999994L452.70000000000005,274.8999999999999L445.80000000000007,271.49999999999994L444.50000000000006,263.79999999999995L442.1000000000001,257.09999999999997L439.00000000000006,250.29999999999995L446.6000000000001,241.39999999999995L457.4000000000001,236.29999999999995L464.0000000000001,232.79999999999995L470.10000000000014,230.49999999999994L469.0000000000001,228.99999999999994L468.9000000000001,227.79999999999995L473.1000000000001,226.39999999999995L478.4000000000001,227.79999999999995L484.1000000000001,228.79999999999995L489.6000000000001,227.79999999999995L501.7000000000001,227.59999999999997L513.5000000000001,228.99999999999997L521.2000000000002,229.59999999999997L534.4000000000002,235.69999999999996L540.8000000000002,237.69999999999996L549.2000000000002,237.79999999999995L557.9000000000002,238.39999999999995L564.7000000000002,240.49999999999994L570.4000000000002,244.19999999999993L569.5000000000002,251.89999999999992L567.0000000000002,259.7999999999999Z" class="sm_state sm_state_DOM1395" opacity="1" stroke-opacity="1" stroke-width="1.2600000000000002" stroke-linejoin="round" transform="matrix(0.6495,0,0,0.6495,0,0)" style="-webkit-tap-highlight-color: rgba(0, 0, 0, 0); opacity: 1; cursor: pointer; stroke-opacity: 1; stroke-linejoin: round; fill-opacity: 1;" fill-opacity="1"></path><path fill="#88a4bc" stroke="#ffffff" d="M660.7,372L657.3000000000001,375.7L655.7,380.09999999999997L658.7,379.59999999999997L659.9000000000001,386.79999999999995L659.4000000000001,393.99999999999994L653.8000000000001,401.19999999999993L649.5000000000001,408.69999999999993L660.2000000000002,420.19999999999993L676.2000000000002,423.49999999999994L674.4000000000002,432.59999999999997L673.5000000000002,440.09999999999997L659.4000000000002,430.29999999999995L653.4000000000002,427.09999999999997L649.4000000000002,426.7L647.7000000000002,429.3L648.3000000000002,435.8L647.6000000000001,438.40000000000003L645.1000000000001,439.20000000000005L641.3000000000002,439.20000000000005L637.8000000000002,438.50000000000006L636.3000000000002,437.50000000000006L631.7000000000002,429.70000000000005L629.6000000000001,427.6L627.5000000000001,426.90000000000003L585.7000000000002,422.3L578.2000000000002,422.7L578.6000000000001,414.2L571.0000000000001,413L565.9000000000001,414.4L560.8000000000001,413.9L554.1,403.9L546.8000000000001,408L546.1,416.2L552.2,425.2L550.6,435.5L544.3000000000001,438.1L543.3000000000001,436.3L543.1,430.1L539.7,425L533.6,424.7L527.4,424.9L524.3,421.59999999999997L523.5999999999999,416.7L518.4999999999999,410.5L511.89999999999986,405.5L506.79999999999984,396.4L503.89999999999986,386.2L505.29999999999984,379.2L507.59999999999985,372.8L500.29999999999984,360.90000000000003L499.99999999999983,348.1L507.6999999999998,350.8L512.6999999999998,359.8L521.2999999999998,363L530.1999999999998,365.5L542.9999999999998,368L554.5999999999998,362.6L556.4999999999998,357.40000000000003L559.6999999999998,356.3L563.1999999999998,356.2L575.6999999999998,356.8L583.0999999999998,362.6L589.2999999999998,369.6L592.9999999999999,374.6L594.4999999999999,380.20000000000005L600.1999999999999,385.80000000000007L602.4,393.9000000000001L614.9,380.7000000000001L630.6999999999999,374.9000000000001L636.5999999999999,373.6000000000001L641.6999999999999,370.30000000000007L650.9999999999999,368.30000000000007L660.6999999999999,372.00000000000006Z" class="sm_state sm_state_DOM1394" opacity="1" stroke-opacity="1" stroke-width="1.2600000000000002" stroke-linejoin="round" transform="matrix(0.6495,0,0,0.6495,0,0)" style="-webkit-tap-highlight-color: rgba(0, 0, 0, 0); opacity: 1; cursor: pointer; stroke-opacity: 1; stroke-linejoin: round; fill-opacity: 1;" fill-opacity="1"></path><path fill="#88a4bc" stroke="#ffffff" d="M481.2,127.5L477.4,144.1L469.7,150.7L458.3,156.2L453,168.39999999999998L450.8,181.79999999999998L447,194.2L446.7,206.39999999999998L435.59999999999997,205.7L428.09999999999997,198.29999999999998L422.59999999999997,189.2L418.59999999999997,179.39999999999998L424.49999999999994,162.59999999999997L425.49999999999994,146.39999999999998L425.3999999999999,127.19999999999997L434.49999999999994,115.89999999999998L439.3999999999999,117.69999999999997L443.8999999999999,119.89999999999998L447.0999999999999,127.59999999999998L453.4999999999999,123.29999999999998L458.9999999999999,115.09999999999998L467.1999999999999,110.39999999999998L474.9999999999999,117.29999999999998L481.1999999999999,127.49999999999999Z" class="sm_state sm_state_DOM1968" opacity="1" stroke-opacity="1" stroke-width="1.2600000000000002" stroke-linejoin="round" transform="matrix(0.6495,0,0,0.6495,0,0)" style="-webkit-tap-highlight-color: rgba(0, 0, 0, 0); opacity: 1; cursor: pointer; stroke-opacity: 1; stroke-linejoin: round; fill-opacity: 1;" fill-opacity="1"></path><path fill="#88a4bc" stroke="#ffffff" d="M310.9,86.4L309.09999999999997,96.10000000000001L305.2,104.80000000000001L298.2,105.80000000000001L291.5,101.00000000000001L292,106.80000000000001L294.2,112.00000000000001L298.09999999999997,113.90000000000002L302.09999999999997,116.40000000000002L301.9,124.30000000000003L300,132.60000000000002L306.2,137.3L305.09999999999997,142.4L293.2,142.4L282,137.6L277,144.4L273.1,144.9L269.1,144L261.20000000000005,140.7L253.60000000000005,136.5L233.70000000000005,132.8L224.10000000000005,116.70000000000002L227.20000000000005,106.80000000000001L225.50000000000006,96.30000000000001L227.20000000000005,90.20000000000002L233.80000000000004,90.90000000000002L232.30000000000004,71.80000000000001L234.70000000000005,63.10000000000001L237.70000000000005,54.70000000000001L247.00000000000006,58.00000000000001L255.70000000000005,62.300000000000004L261.80000000000007,66.9L269.1000000000001,68.9L280.1000000000001,72.4L289.30000000000007,79.7L299.50000000000006,84.9L310.90000000000003,86.4Z" class="sm_state sm_state_DOM1392" opacity="1" stroke-opacity="1" stroke-width="1.2600000000000002" stroke-linejoin="round" transform="matrix(0.6495,0,0,0.6495,0,0)" style="-webkit-tap-highlight-color: rgba(0, 0, 0, 0); opacity: 1; cursor: pointer; stroke-opacity: 1; stroke-linejoin: round; fill-opacity: 1;" fill-opacity="1"></path><path fill="#88a4bc" stroke="#ffffff" d="M224.1,116.7L233.7,132.8L253.6,136.5L250.1,141.4L249.5,147.1L253.1,149.6L255.4,152.5L245,156L235.2,160.7L230.1,161L224.9,160.4L220.8,163.20000000000002L217.4,167.10000000000002L212.5,171.3L208.7,176.5L207,194.1L208,200.1L212.5,204.4L212.8,213.1L211.4,222.2L196.9,222L185.20000000000002,216.2L173.3,209.79999999999998L161.20000000000002,203.7L152.8,192.39999999999998L141.5,185.2L137,180.1L134.3,173.9L147.5,168L150.8,149.7L152.9,143.6L152.3,137.1L155.60000000000002,124.89999999999999L161.90000000000003,114.39999999999999L165.50000000000003,109.8L170.20000000000002,113.3L178.50000000000003,116.39999999999999L187.30000000000004,115.69999999999999L192.50000000000003,112.89999999999999L198.30000000000004,112.19999999999999L206.80000000000004,117.19999999999999L215.30000000000004,117.99999999999999L219.40000000000003,115.09999999999998L224.10000000000002,116.69999999999997Z" class="sm_state sm_state_DOM1391" opacity="1" stroke-opacity="1" stroke-width="1.2600000000000002" stroke-linejoin="round" transform="matrix(0.6495,0,0,0.6495,0,0)" style="-webkit-tap-highlight-color: rgba(0, 0, 0, 0); opacity: 1; cursor: pointer; stroke-opacity: 1; stroke-linejoin: round; fill-opacity: 1;" fill-opacity="1"></path><path fill="#88a4bc" stroke="#ffffff" d="M396.8,122.1L395.6,127.89999999999999L391.6,132.5L387.90000000000003,138.7L386.3,145.89999999999998L387.1,152.39999999999998L387,158.79999999999998L378.8,164.99999999999997L364.5,169.69999999999996L350.9,176.89999999999995L344.2,178.79999999999995L342.2,184.69999999999996L348.8,189.69999999999996L357.1,191.99999999999997L361.40000000000003,199.59999999999997L359.40000000000003,209.29999999999995L360.20000000000005,217.59999999999997L353.1,216.19999999999996L347.20000000000005,216.59999999999997L343.90000000000003,224.29999999999995L329.70000000000005,235.09999999999997L312.80000000000007,243.29999999999995L303.9000000000001,247.19999999999996L296.0000000000001,251.09999999999997L298.0000000000001,257.2L296.8000000000001,263.59999999999997L282.7000000000001,259.2L276.1000000000001,260.59999999999997L269.9000000000001,263.7L257.6000000000001,259.9L245.50000000000009,252.09999999999997L240.4000000000001,247.39999999999998L239.50000000000009,240.29999999999998L237.20000000000007,235.99999999999997L221.60000000000008,228.19999999999996L211.4000000000001,222.19999999999996L212.8000000000001,213.09999999999997L212.50000000000009,204.39999999999998L208.00000000000009,200.09999999999997L207.00000000000009,194.09999999999997L208.70000000000007,176.49999999999997L212.50000000000009,171.29999999999998L217.4000000000001,167.1L220.8000000000001,163.2L224.9000000000001,160.39999999999998L230.10000000000008,160.99999999999997L235.20000000000007,160.69999999999996L245.00000000000009,155.99999999999997L255.4000000000001,152.49999999999997L253.10000000000008,149.59999999999997L249.50000000000009,147.09999999999997L250.10000000000008,141.39999999999998L253.60000000000008,136.49999999999997L261.2000000000001,140.69999999999996L269.1000000000001,143.99999999999997L273.1000000000001,144.89999999999998L277.00000000000006,144.39999999999998L282.00000000000006,137.59999999999997L293.20000000000005,142.39999999999998L305.1,142.39999999999998L306.20000000000005,137.29999999999998L300.00000000000006,132.6L301.90000000000003,124.3L302.1,116.39999999999999L298.1,113.89999999999999L294.20000000000005,111.99999999999999L292.00000000000006,106.79999999999998L291.50000000000006,100.99999999999999L298.20000000000005,105.79999999999998L305.20000000000005,104.79999999999998L309.1,96.09999999999998L310.90000000000003,86.39999999999998L319.40000000000003,88.39999999999998L326.90000000000003,90.59999999999998L339.00000000000006,101.19999999999997L351.20000000000005,100.59999999999998L352.20000000000005,83.69999999999999L366.6,90.19999999999999L372.3,103.89999999999999L380.3,116.89999999999999L396.8,122.1Z" class="sm_state sm_state_DOM1390" opacity="1" stroke-opacity="1" stroke-width="1.2600000000000002" stroke-linejoin="round" transform="matrix(0.6495,0,0,0.6495,0,0)" style="-webkit-tap-highlight-color: rgba(0, 0, 0, 0); opacity: 1; cursor: pointer; stroke-opacity: 1; stroke-linejoin: round; fill-opacity: 1;" fill-opacity="1"></path><path fill="#88a4bc" stroke="#ffffff" d="M213.9,30.8L215.70000000000002,40.6L221.10000000000002,49L229.60000000000002,51.4L237.70000000000002,54.699999999999996L234.70000000000002,63.099999999999994L232.3,71.8L233.8,90.9L227.20000000000002,90.2L225.50000000000003,96.3L227.20000000000002,106.8L224.10000000000002,116.7L219.40000000000003,115.10000000000001L215.30000000000004,118.00000000000001L206.80000000000004,117.20000000000002L198.30000000000004,112.20000000000002L192.50000000000003,112.90000000000002L187.30000000000004,115.70000000000002L178.50000000000003,116.40000000000002L170.20000000000002,113.30000000000003L165.50000000000003,109.80000000000003L161.90000000000003,114.40000000000002L150.80000000000004,109.10000000000002L140.40000000000003,102.20000000000002L136.40000000000003,94.70000000000002L129.50000000000003,92.80000000000001L101.00000000000003,96.30000000000001L74.60000000000002,85.10000000000001L71.60000000000002,84.30000000000001L71.90000000000002,79.70000000000002L70.90000000000002,74.60000000000002L68.50000000000001,66.70000000000002L73.70000000000002,67.80000000000001L78.60000000000002,70.30000000000001L77.50000000000003,64.60000000000001L72.70000000000003,53.50000000000001L73.00000000000003,48.50000000000001L65.70000000000003,48.10000000000001L64.80000000000003,45.00000000000001L67.70000000000003,40.50000000000001L72.00000000000003,35.800000000000004L74.60000000000002,34.6L77.60000000000002,34.7L79.50000000000003,33.900000000000006L84.10000000000002,28.800000000000004L92.10000000000002,25.700000000000003L95.30000000000003,22.900000000000002L93.40000000000002,19.3L93.10000000000002,16L94.50000000000003,13.7L98.00000000000003,12.799999999999999L100.10000000000002,13.2L103.40000000000002,14.6L105.40000000000002,15L109.20000000000002,11L137.10000000000002,8.9L144.20000000000002,9.9L151.20000000000002,12.4L177.10000000000002,26L184.70000000000002,27.5L191.9,24.7L197.4,28.7L201.3,30.5L213.3,30.9L213.9,30.799999999999997Z" class="sm_state sm_state_DOM1964" opacity="1" stroke-opacity="1" stroke-width="1.2600000000000002" stroke-linejoin="round" transform="matrix(0.6495,0,0,0.6495,0,0)" style="-webkit-tap-highlight-color: rgba(0, 0, 0, 0); opacity: 1; cursor: pointer; stroke-opacity: 1; stroke-linejoin: round; fill-opacity: 1;" fill-opacity="1"></path><path fill="#88a4bc" stroke="#ffffff" d="M444.3,65.5L441.40000000000003,73.7L437.3,81.4L432.8,82.80000000000001L427.90000000000003,82.80000000000001L423.1,84.10000000000001L418.3,84.7L414.90000000000003,83.9L411.3,83.80000000000001L407.1,87.70000000000002L405,93.40000000000002L402.8,108.70000000000002L396.8,122.10000000000002L380.3,116.90000000000002L372.3,103.90000000000002L366.6,90.20000000000002L352.20000000000005,83.70000000000002L351.20000000000005,100.60000000000002L339.00000000000006,101.20000000000002L326.90000000000003,90.60000000000002L319.40000000000003,88.40000000000002L310.90000000000003,86.40000000000002L299.50000000000006,84.90000000000002L289.30000000000007,79.70000000000002L280.1000000000001,72.40000000000002L269.1000000000001,68.90000000000002L261.80000000000007,66.90000000000002L255.70000000000007,62.30000000000002L247.00000000000009,58.00000000000002L237.70000000000007,54.700000000000024L229.60000000000008,51.40000000000003L221.10000000000008,49.00000000000003L215.70000000000007,40.60000000000003L213.90000000000006,30.80000000000003L216.50000000000006,30.00000000000003L217.40000000000006,24.900000000000027L218.80000000000007,21.900000000000027L222.00000000000006,20.600000000000026L224.30000000000007,23.300000000000026L227.30000000000007,30.900000000000027L231.00000000000006,28.200000000000028L232.90000000000006,24.700000000000028L230.60000000000005,23.900000000000027L229.20000000000005,20.900000000000027L233.40000000000003,22.600000000000026L237.00000000000003,22.400000000000027L240.60000000000002,21.400000000000027L245.00000000000003,20.900000000000027L247.80000000000004,18.800000000000026L252.80000000000004,9.300000000000026L256.1,7.100000000000025L260.20000000000005,6.000000000000025L269.00000000000006,1.6000000000000245L273.80000000000007,1.0000000000000244L278.20000000000005,2.1000000000000245L282.40000000000003,4.6000000000000245L284.6,8.200000000000024L283.20000000000005,12.800000000000024L288.50000000000006,15.000000000000025L290.50000000000006,15.000000000000025L288.50000000000006,8.900000000000025L301.6000000000001,11.000000000000025L305.4000000000001,10.600000000000025L313.5000000000001,8.800000000000024L316.60000000000014,8.900000000000023L319.90000000000015,11.200000000000024L331.90000000000015,25.500000000000025L332.8000000000001,28.200000000000024L331.40000000000015,30.900000000000023L341.60000000000014,31.000000000000025L345.5000000000001,32.90000000000003L355.9000000000001,41.70000000000003L365.7000000000001,46.70000000000003L376.2000000000001,50.400000000000034L388.3000000000001,52.20000000000003L404.7000000000001,52.400000000000034L407.4000000000001,49.60000000000004L410.7000000000001,47.30000000000004L414.4000000000001,45.40000000000004L417.1000000000001,44.600000000000044L427.7000000000001,47.90000000000004L444.3000000000001,65.50000000000004Z" class="sm_state sm_state_DOM1965" opacity="1" stroke-opacity="1" stroke-width="1.2600000000000002" stroke-linejoin="round" transform="matrix(0.6495,0,0,0.6495,0,0)" style="-webkit-tap-highlight-color: rgba(0, 0, 0, 0); opacity: 1; cursor: pointer; stroke-opacity: 1; stroke-linejoin: round; fill-opacity: 1;" fill-opacity="1"></path><path fill="#88a4bc" stroke="#ffffff" d="M161.9,114.4L155.6,124.9L152.29999999999998,137.1L152.89999999999998,143.6L150.79999999999998,149.7L147.49999999999997,168L134.29999999999998,173.9L136.99999999999997,180.1L141.49999999999997,185.2L136.89999999999998,190L131.29999999999998,193.4L124.89999999999998,191.20000000000002L118.19999999999997,189.4L114.89999999999998,193.4L112.89999999999998,198.70000000000002L107.19999999999997,200.8L101.69999999999997,204.10000000000002L97.19999999999997,208.40000000000003L79.59999999999997,199.90000000000003L69.49999999999997,189.50000000000003L64.69999999999997,182.70000000000002L63.299999999999976,176.9L65.09999999999998,175.1L72.39999999999998,170.9L74.99999999999997,168.9L78.39999999999998,160.1L79.89999999999998,158.5L82.99999999999997,151.8L83.19999999999997,139L79.99999999999997,116.5L72.39999999999998,98.4L71.09999999999998,91.9L71.59999999999998,84.30000000000001L74.59999999999998,85.10000000000001L100.99999999999997,96.30000000000001L129.49999999999997,92.80000000000001L136.39999999999998,94.70000000000002L140.39999999999998,102.20000000000002L150.79999999999998,109.10000000000002L161.89999999999998,114.40000000000002Z" class="sm_state sm_state_DOM1966" opacity="1" stroke-opacity="1" stroke-width="1.2600000000000002" stroke-linejoin="round" transform="matrix(0.6495,0,0,0.6495,0,0)" style="-webkit-tap-highlight-color: rgba(0, 0, 0, 0); opacity: 1; cursor: pointer; stroke-opacity: 1; stroke-linejoin: round; fill-opacity: 1;" fill-opacity="1"></path><path fill="#88a4bc" stroke="#ffffff" d="M519.9,87.9L520.1,89.60000000000001L515,104.60000000000001L501.6,112.4L495.3,112L489.5,112.4L487.9,119.80000000000001L487,128L481.2,127.5L475,117.3L467.2,110.39999999999999L459,115.1L453.5,123.3L447.1,127.6L443.90000000000003,119.89999999999999L439.40000000000003,117.69999999999999L434.50000000000006,115.89999999999999L425.40000000000003,127.19999999999999L425.50000000000006,146.39999999999998L424.50000000000006,162.59999999999997L418.6000000000001,179.39999999999998L411.00000000000006,180.89999999999998L405.50000000000006,167.09999999999997L399.90000000000003,168.29999999999995L393.90000000000003,170.69999999999996L385.3,169.89999999999995L378.8,164.99999999999994L387,158.79999999999995L387.1,152.39999999999995L386.3,145.89999999999995L387.90000000000003,138.69999999999996L391.6,132.49999999999997L395.6,127.89999999999998L396.8,122.09999999999998L402.8,108.69999999999997L405,93.39999999999998L407.1,87.69999999999997L411.3,83.79999999999997L414.90000000000003,83.89999999999996L418.3,84.69999999999996L423.1,84.09999999999997L427.90000000000003,82.79999999999997L432.8,82.79999999999997L437.3,81.39999999999996L441.40000000000003,73.69999999999996L444.3,65.49999999999996L454.2,76.09999999999995L458.7,79.29999999999995L463.59999999999997,81.79999999999995L469.2,83.49999999999996L481.59999999999997,84.79999999999995L491.49999999999994,88.39999999999995L509.79999999999995,92.09999999999995L513.8,91.99999999999996L516.5,90.99999999999996L519.9,87.89999999999996Z" class="sm_state sm_state_DOM1967" opacity="1" stroke-opacity="1" stroke-width="1.2600000000000002" stroke-linejoin="round" transform="matrix(0.6495,0,0,0.6495,0,0)" style="-webkit-tap-highlight-color: rgba(0, 0, 0, 0); opacity: 1; cursor: pointer; stroke-opacity: 1; stroke-linejoin: round; fill-opacity: 1;" fill-opacity="1"></path><path fill="#88a4bc" stroke="#ffffff" d="M211.4,222.2L221.6,228.2L237.2,236L239.5,240.3L240.4,247.4L245.5,252.1L257.6,259.9L269.90000000000003,263.7L276.1,260.59999999999997L282.70000000000005,259.2L296.80000000000007,263.59999999999997L301.30000000000007,268.2L303.6000000000001,274.4L301.30000000000007,280.5L295.6000000000001,283.4L294.50000000000006,288.9L290.70000000000005,292.59999999999997L284.00000000000006,297.29999999999995L280.80000000000007,304.49999999999994L278.9000000000001,318.69999999999993L278.80000000000007,333.49999999999994L276.70000000000005,338.29999999999995L273.00000000000006,341.9L269.00000000000006,340.29999999999995L266.70000000000005,335.29999999999995L257.90000000000003,338.09999999999997L259.6,348.9L259.3,352.5L256.5,356.4L258.3,359.59999999999997L258.90000000000003,363.2L253.80000000000004,365.7L249.30000000000004,367.4L242.20000000000005,378L230.30000000000004,381.2L220.40000000000003,375.7L207.50000000000003,379.5L200.10000000000002,380.8L192.60000000000002,380L186.3,382.2L180.5,385.9L167.2,384.9L155.1,378.7L141.6,376L128.9,371.3L132.70000000000002,362.1L129.60000000000002,354L122.30000000000003,352.3L117.20000000000003,346.90000000000003L117.20000000000003,339.8L115.30000000000003,333.2L109.80000000000003,328.4L103.60000000000002,324.4L106.90000000000002,310.4L102.20000000000002,304.4L104.50000000000001,288.9L111.20000000000002,274.59999999999997L117.20000000000002,269.09999999999997L124.90000000000002,268.4L133.3,265.9L137.5,256.79999999999995L140.7,244.49999999999994L146.2,234.19999999999993L155.39999999999998,235.69999999999993L163.89999999999998,240.89999999999992L174.2,240.29999999999993L182.79999999999998,233.69999999999993L183.29999999999998,224.79999999999993L185.2,216.19999999999993L196.89999999999998,221.99999999999994L211.39999999999998,222.19999999999993Z" class="sm_state sm_state_DOM1393" opacity="1" stroke-opacity="1" stroke-width="1.2600000000000002" stroke-linejoin="round" transform="matrix(0.6495,0,0,0.6495,0,0)" style="-webkit-tap-highlight-color: rgba(0, 0, 0, 0); opacity: 1; cursor: pointer; stroke-opacity: 1; stroke-linejoin: round; fill-opacity: 1;" fill-opacity="1"></path><desc style="-webkit-tap-highlight-color: rgba(0, 0, 0, 0);">Created with Raphal 2.1.0</desc><defs style="-webkit-tap-highlight-color: rgba(0, 0, 0, 0);"></defs><rect x="359.24069757681394" y="262.7423899517034" width="25.2" height="25.2" r="0" rx="0" ry="0" fill="#ff0067" stroke="#ffffff" stroke-width="2.016" opacity="0.8" transform="matrix(0.6495,0,0,0.6495,130.3439,96.5177)" class="sm_location sm_location_0" style="-webkit-tap-highlight-color: rgba(0, 0, 0, 0); opacity: 0.8; cursor: pointer;"></rect></svg>